<svg width="246" height="246" viewBox="0 0 246 246" fill="none" xmlns="http://www.w3.org/2000/svg">
<g clip-path="url(#clip0_1007_2)">
<mask id="mask0_1007_2" style="mask-type:luminance" maskUnits="userSpaceOnUse" x="0" y="0" width="246" height="246">
<path d="M246 0H0V246H246V0Z" fill="white"/>
</mask>
<g mask="url(#mask0_1007_2)">
<path d="M123 246C190.931 246 246 190.931 246 123C246 55.069 190.931 0 123 0C55.069 0 0 55.069 0 123C0 190.931 55.069 246 123 246Z" fill="black"/>
<path fill-rule="evenodd" clip-rule="evenodd" d="M49.9688 82.6772V163.359L74.2101 163.214V130.485C77.0929 130.485 79.8024 130.601 82.2751 132.328C84.1574 134.064 85.6534 136.198 86.6612 138.583L99.6308 163.214H126.844C121.446 152.472 117.121 138.885 107.837 130.727C105.878 129.438 103.75 128.442 101.517 127.77C104.501 127.143 107.378 126.065 110.054 124.57C116.794 120.454 120.661 112.932 120.477 105.078C120.616 100.448 119.347 95.8885 116.845 92.0351C111.183 83.3644 99.6827 82.3381 90.1986 82.6772H49.9688ZM84.5391 115.357H74.3047V98.7748H84.9634C90.2539 98.244 96.791 100.612 96.4239 106.872C96.6699 113.629 89.8081 114.977 84.5391 115.357Z" fill="#FFB749"/>
<path d="M151.739 134.873L126.844 136.325C127.329 143.63 130.696 150.521 136.313 155.706C141.879 160.793 151.857 163.337 166.248 163.337C178.182 163.676 191.825 160.725 199.187 150.509C202.154 146.422 203.731 141.614 203.718 136.699C203.802 127.554 197.699 120.039 189.514 116.522C181.668 113.301 173.429 110.959 164.975 109.547C161.863 109.201 158.873 108.226 156.219 106.691C153.381 104.779 154.05 100.811 156.575 99.0135C163.776 94.2514 175.39 98.2251 176.277 107.253L200.969 105.942C200.53 99.0457 196.74 92.4595 190.787 88.246C183.342 84.1347 174.711 82.2078 166.045 82.7221C158.936 82.4588 151.842 83.4932 145.172 85.7648C136.869 88.8387 130.03 96.3397 130.051 105.521C129.892 111.229 132.67 116.884 137.433 120.548C144.7 125.398 153.106 128.605 161.972 129.911C166.755 130.548 171.326 132.146 175.361 134.592C179.072 137.341 179.045 142.861 175.259 145.641C171.077 148.573 164.91 148.913 160.214 147.011C155.179 144.971 152.231 140.214 151.739 134.873Z" fill="#FFB749"/>
</g>
</g>
<defs>
<clipPath id="clip0_1007_2">
<rect width="246" height="246" fill="white"/>
</clipPath>
</defs>
</svg>
